o enemyStarInactive_Geo
v -0.250000 0.408257 0.288670
v 0.250000 0.408257 0.288670
v 0.000000 0.408257 -0.144343
v 0.000000 0.816505 0.144332
v -0.500000 0.000009 0.433007
v -0.000000 0.000009 0.433007
v -0.250000 0.000009 -0.000006
v -0.000000 0.000009 0.433007
v 0.500000 0.000009 0.433007
v 0.250000 0.000009 -0.000005
v 0.250000 0.408257 0.288670
v 0.250000 0.000009 -0.000005
v 0.000000 0.000009 -0.433018
v -0.250000 0.000009 -0.000006
v 0.250000 0.000009 -0.000005
v 0.000000 0.408058 0.144893
v -0.000000 -0.000586 0.433007
v -0.250000 0.408257 0.288669
v 0.000000 0.408257 -0.144343
v 0.166636 0.136047 0.240539
v -0.250047 0.000027 -0.000033
v 0.000000 0.408257 -0.144343
v 0.250000 0.408257 0.288670
v -0.166636 0.136047 0.240539
v 0.250047 0.000028 -0.000032
v 0.250000 0.408257 0.288669
v -0.250000 0.408257 0.288669
v 0.000000 0.136047 -0.048083
v -0.000000 0.000028 0.433061
vn -0.0000 -1.0000 -0.0000
vn -0.0000 0.3333 0.9428
vn 0.8165 0.3333 -0.4714
vn -0.8165 0.3333 -0.4714
vn -0.0000 0.3346 -0.9424
vn -0.0000 -1.0000 -0.0014
vn 0.8165 0.3327 0.4719
vn -0.8165 0.3327 0.4719
vn 0.5444 0.7777 0.3143
vn -0.8165 0.3335 -0.4714
vn 0.5443 -0.5556 -0.6286
vn -0.2722 -0.5556 0.7856
vn -0.5444 0.7777 0.3143
vn 0.8165 0.3335 -0.4714
vn 0.2722 -0.5556 0.7856
vn -0.5443 -0.5556 -0.6286
vn -0.0000 0.7777 -0.6286
vn -0.0000 0.3335 0.9428
vn -0.8165 -0.5556 -0.1571
vn 0.8165 -0.5556 -0.1571
vt 0.625000 0.977500
vt 0.725586 0.774414
vt 0.524414 0.774414
vt 0.524414 0.774414
vt 0.524414 0.774414
vt 0.625000 0.977500
vt 0.725586 0.774414
vt 0.625000 0.977500
vt 0.625000 0.977500
vt 0.524414 0.774414
vt 0.625000 0.977500
vt 0.725586 0.774414
vt 0.524414 0.774414
vt 0.524414 0.774414
vt 0.725586 0.774414
vt 0.625000 0.977500
vt 0.725586 0.774414
vt 0.625000 0.977500
vt 0.524414 0.774414
vt 0.524414 0.774414
vt 0.625000 0.977500
vt 0.600586 0.977500
vt 0.399414 0.977500
vt 0.399414 0.977500
vt 0.600586 0.977500
vt 0.500000 0.774414
vt 0.399414 0.977500
vt 0.600586 0.977500
vt 0.500000 0.774414
vt 0.600586 0.977500
vt 0.399414 0.977500
vt 0.399414 0.977500
vt 0.600586 0.977500
vt 0.500000 0.774414
vt 0.399414 0.977500
vt 0.600586 0.977500
vt 0.500000 0.774414
vt 0.600586 0.977500
vt 0.399414 0.977500
vt 0.399414 0.977500
vt 0.600586 0.977500
vt 0.500000 0.774414
vt 0.399414 0.977500
vt 0.600586 0.977500
vt 0.500000 0.774414
vt 0.600586 0.977500
vt 0.399414 0.977500
vt 0.399414 0.977500
vt 0.600586 0.977500
vt 0.500000 0.774414
vt 0.399414 0.977500
vt 0.600586 0.977500
vt 0.500000 0.774414
s 1
f 1/1/1 3/7/1 2/4/1
f 1/2/2 2/4/2 4/8/2
f 2/4/3 3/7/3 4/8/3
f 3/5/4 1/2/4 4/8/4
f 5/9/1 7/12/1 6/10/1
f 5/9/2 6/10/2 1/2/2
f 6/10/3 7/11/3 1/2/3
f 7/12/4 5/9/4 1/3/4
f 8/14/1 10/17/1 9/16/1
f 8/15/2 9/16/2 11/19/2
f 9/16/3 10/17/3 11/19/3
f 10/18/4 8/15/4 11/19/4
f 7/12/1 13/21/1 12/20/1
f 7/12/2 12/20/2 3/6/2
f 12/20/3 13/21/3 3/7/3
f 13/21/4 7/13/4 3/7/4
f 14/23/5 16/26/5 15/25/5
f 14/22/6 15/24/6 17/29/6
f 15/25/7 16/27/7 17/29/7
f 16/28/8 14/23/8 17/29/8
f 18/31/9 20/34/9 19/33/9
f 18/30/10 19/32/10 21/37/10
f 19/33/11 20/35/11 21/37/11
f 20/36/12 18/31/12 21/37/12
f 22/39/13 24/42/13 23/41/13
f 22/38/14 23/40/14 25/45/14
f 23/41/15 24/43/15 25/45/15
f 24/44/16 22/39/16 25/45/16
f 26/47/17 28/50/17 27/49/17
f 26/46/18 27/48/18 29/53/18
f 27/49/19 28/51/19 29/53/19
f 28/52/20 26/47/20 29/53/20
